<svg id="그룹_2" data-name="그룹 2" xmlns="http://www.w3.org/2000/svg" width="380" height="57" viewBox="0 0 380 57">
  <g id="그룹_9" data-name="그룹 9">
    <path id="패스_6" data-name="패스 6" d="M7.6,0H372.4A7.6,7.6,0,0,1,380,7.6V49.4a7.6,7.6,0,0,1-7.6,7.6H7.6A7.6,7.6,0,0,1,0,49.4V7.6A7.6,7.6,0,0,1,7.6,0Z" fill="#fee500" fill-rule="evenodd"/>
    <path id="패스_7" data-name="패스 7" d="M26.4,13.976c-6.3,0-11.4,3.965-11.4,8.853,0,3.04,1.973,5.722,4.981,7.315l-1.265,4.645a.465.465,0,0,0,.713.5l5.544-3.678c.469.046.944.072,1.428.072,6.3,0,11.4-3.963,11.4-8.853s-5.1-8.853-11.4-8.853" transform="translate(4 3.727)" fill-rule="evenodd" opacity="0.902"/>
    <text id="카카오계정으로_로그인" data-name="카카오계정으로 로그인" transform="translate(123.733 36.745)" fill="#191919" font-size="18" font-family="NotoSansKR-Bold, Noto Sans KR" font-weight="700"><tspan x="0" y="0">카카오계정으로 로그인</tspan></text>
  </g>
</svg>
